# xmcd
#
# Track frame offsets: 
#        150
#        31270
#        68192
#        105230
#        132935
#        168350
#        198565
#        244177
#
# Disc length: 3797 seconds
#
# Revision: 0
# Processed by: cddbd v1.5.1PL2 Copyright (c) Steve Scherf et al.
# Submitted via: ExactAudioCopy v0.95b4
#
DISCID=660ed308
DTITLE=Eric Alexander - Eric Alexander In Europe
DYEAR=1996
DGENRE=Jazz
TTITLE0=What a difference a day makes 
TTITLE1=The Edge 
TTITLE2=Stay on it 
TTITLE3=To be with you 
TTITLE4=Trippin'
TTITLE5=Spank that pig 
TTITLE6=Good morning heartache 
TTITLE7=That's all 
EXTD=
EXTT0=
EXTT1=
EXTT2=
EXTT3=
EXTT4=
EXTT5=
EXTT6=
EXTT7=
PLAYORDER=
